<?xml version="1.0" encoding="utf-8"?>
<svg xmlns="http://www.w3.org/2000/svg" 
viewBox="12.296 18.685 80.643 77.509" width="80.643px" height="77.509px"
 preserveAspectRatio="align meetOrSlice"
>
<path d="M 17.481 19.498 L 21.551 25.766 L 23.008 23.325 L 24.005 24.997 L 27.227 19.315 L 29.798 23.849 L 29.798 22.758 L 31.034 22.758 L 32.024 20.971 L 32.904 22.557 L 36.483 18.685 L 40.247 22.758 L 41.323 22.758 L 41.323 24.474 L 44.543 20.51 L 49.053 26.061 L 50.083 26.061 L 52.746 21.634 L 55.409 26.061 L 57.484 26.061 L 58.791 23.065 L 59.962 25.748 L 63.385 20.604 L 66.995 26.029 L 60.084 26.029 L 60.098 26.061 L 67.466 26.061 L 69.074 22.404 L 70.681 26.061 L 70.804 26.061 L 73.467 21.493 L 76.13 26.061 L 79.18 26.061 L 82.834 18.904 L 86.489 26.061 L 87.944 26.061 L 89.542 22.674 L 91.14 26.061 L 92.939 26.061 L 92.939 96.194 L 12.296 96.194 L 12.296 26.061 L 13.219 26.061 Z" style="fill: rgb(216, 216, 216); stroke: rgb(0, 0, 0);" id="object-0" transform="matrix(0.9999999999999999, 0, 0, 0.9999999999999999, -1.7763568394002505e-15, 0)"/></svg>